<?xml version="1.0" standalone="no"?>
<!DOCTYPE svg PUBLIC "-//W3C//DTD SVG 20010904//EN"
 "http://www.w3.org/TR/2001/REC-SVG-20010904/DTD/svg10.dtd">
<svg version="1.0" xmlns="http://www.w3.org/2000/svg"
 width="600.000000pt" height="600.000000pt" viewBox="0 0 600.000000 600.000000"
 preserveAspectRatio="xMidYMid meet">
<metadata>
Created by potrace 1.11, written by Peter Selinger 2001-2013
</metadata>
<g transform="translate(0.000000,600.000000) scale(0.100000,-0.100000)"
fill="#000000" stroke="none">
<path d="M3060 5445 c-5 -14 -19 -46 -31 -73 -12 -26 -30 -65 -39 -87 -38 -88
-63 -143 -98 -214 -36 -72 -39 -75 -89 -90 -28 -9 -55 -20 -59 -24 -4 -4 -13
-7 -21 -7 -13 0 -51 -16 -182 -77 -41 -19 -81 -32 -90 -29 -34 10 -107 38
-141 53 -47 20 -69 29 -110 43 -19 7 -44 16 -55 20 -255 103 -254 103 -478
-118 -92 -92 -174 -180 -182 -196 -18 -35 -19 -104 -4 -143 17 -42 25 -62 49
-128 13 -33 29 -76 37 -95 8 -19 19 -44 23 -55 5 -11 14 -38 21 -60 7 -22 17
-44 21 -49 4 -6 8 -18 8 -28 0 -9 9 -22 19 -28 13 -6 198 -10 531 -10 554 0
521 -3 607 56 184 126 504 202 736 175 134 -15 193 -28 303 -66 162 -56 292
-136 442 -272 41 -37 83 -75 94 -84 10 -9 18 -21 18 -28 0 -6 5 -11 10 -11 6
0 10 -5 10 -10 0 -6 11 -23 25 -38 14 -15 25 -32 25 -39 0 -7 4 -13 8 -13 5 0
14 -16 22 -35 8 -19 17 -35 22 -35 4 0 8 -9 8 -20 0 -11 5 -20 10 -20 6 0 10
-9 10 -19 0 -11 5 -23 10 -26 6 -3 10 -14 10 -24 0 -10 7 -24 15 -31 8 -7 15
-23 15 -36 0 -12 5 -26 10 -29 6 -3 10 -22 10 -41 0 -19 5 -34 10 -34 6 0 10
-22 10 -49 0 -28 5 -53 10 -56 6 -4 10 -73 10 -173 l1 -167 22 28 c13 15 30
27 38 27 8 0 33 18 54 40 21 22 44 40 50 40 6 0 31 20 55 45 24 25 49 45 55
45 6 0 29 18 50 40 21 22 44 40 50 40 6 0 31 20 55 45 24 25 49 45 55 45 6 0
29 18 50 40 21 22 44 40 50 40 6 0 26 16 45 35 19 19 40 35 48 35 8 0 26 13
41 29 15 16 43 38 62 49 39 22 51 52 20 52 -11 0 -23 5 -26 10 -3 6 -16 10
-29 10 -16 0 -27 10 -39 38 -9 21 -17 48 -17 60 0 12 -4 22 -10 22 -5 0 -10
11 -10 24 0 14 -4 28 -10 31 -5 3 -10 17 -10 30 0 13 -3 25 -7 27 -5 2 -25 38
-47 80 -39 78 -43 114 -16 167 11 22 23 52 60 151 18 47 39 101 47 120 59 141
70 196 53 260 -10 36 -38 69 -168 200 -166 165 -190 185 -242 200 -48 14 -98
0 -342 -96 -120 -47 -225 -86 -235 -86 -10 0 -56 17 -103 39 -84 40 -271 113
-288 113 -5 0 -20 24 -32 53 -26 61 -61 141 -127 287 -16 36 -36 80 -44 98
l-14 32 -363 0 -362 0 -10 -25z"/>
<path d="M265 3690 c-133 -20 -217 -87 -240 -191 -5 -22 -3 -34 6 -40 8 -5
236 -9 507 -9 l493 0 25 -25 c23 -23 25 -31 22 -107 l-3 -83 -435 -6 c-488 -6
-515 -10 -608 -77 l-32 -24 0 -293 0 -293 30 -25 c16 -14 56 -36 87 -49 l58
-23 648 -3 647 -3 0 505 0 506 174 0 c149 0 175 -2 180 -16 3 -9 6 -236 6
-505 l0 -489 193 2 192 3 3 503 2 502 571 0 c570 0 600 -2 621 -34 4 -6 8 -41
8 -78 0 -106 8 -104 -327 -111 -281 -6 -326 -12 -399 -50 -57 -30 -109 -104
-116 -163 l-3 -29 401 -5 c484 -6 444 7 444 -146 0 -152 34 -141 -427 -146
-360 -5 -381 -6 -445 -27 -36 -13 -82 -36 -101 -52 -40 -33 -77 -102 -77 -143
l0 -27 608 3 607 3 58 24 c77 30 119 69 148 133 20 46 23 70 23 188 1 74 -3
152 -7 173 -10 46 -66 111 -120 138 l-39 20 53 32 c29 18 63 47 76 65 47 70
54 209 16 315 -22 61 -72 107 -149 138 l-59 24 -1635 1 c-899 1 -1657 -2
-1685 -6z m813 -857 l3 -143 -351 0 c-332 0 -351 1 -369 19 -24 24 -36 95 -27
169 7 59 18 79 51 93 11 4 171 7 355 6 l335 -2 3 -142z"/>
<path d="M5490 3570 c0 -5 4 -10 9 -10 6 0 13 5 16 10 3 6 -1 10 -9 10 -9 0
-16 -4 -16 -10z"/>
<path d="M4631 2834 c0 -11 3 -14 6 -6 3 7 2 16 -1 19 -3 4 -6 -2 -5 -13z"/>
<path d="M1657 2092 c-9 -10 -17 -23 -17 -28 0 -7 -119 -318 -161 -422 -14
-35 -11 -129 5 -160 8 -15 90 -102 183 -194 137 -136 176 -168 211 -179 57
-17 80 -10 356 97 202 79 222 85 267 79 27 -4 49 -11 49 -16 0 -17 18 -9 23
11 3 11 14 20 24 20 10 0 39 20 63 45 24 25 49 45 55 45 6 0 31 20 55 45 24
25 49 45 55 45 6 0 29 18 50 40 21 22 44 40 50 40 6 0 31 20 55 45 24 25 49
45 55 45 6 0 29 18 50 40 21 22 44 40 50 40 6 0 31 20 55 45 24 25 52 45 62
45 10 0 18 4 18 9 0 5 10 12 23 17 16 6 7 9 -38 11 -33 2 -64 8 -70 14 -5 5
-20 9 -33 9 -32 0 -122 30 -122 41 0 5 -13 9 -30 9 -16 0 -30 5 -30 10 0 6
-11 10 -25 10 -14 0 -25 5 -25 10 0 6 -9 10 -20 10 -11 0 -20 5 -20 10 0 6 -6
10 -14 10 -19 0 -96 42 -96 52 0 4 -7 8 -15 8 -9 0 -18 7 -21 15 -4 8 -12 15
-19 15 -7 0 -15 6 -17 13 -4 9 -118 13 -514 15 -491 3 -510 3 -527 -16z"/>
</g>
</svg>
